<?xml version="1.0" standalone="no"?>
<!DOCTYPE svg PUBLIC "-//W3C//DTD SVG 20010904//EN"
 "http://www.w3.org/TR/2001/REC-SVG-20010904/DTD/svg10.dtd">
<svg version="1.0" xmlns="http://www.w3.org/2000/svg"
 width="282.000000pt" height="282.000000pt" viewBox="0 0 282.000000 282.000000"
 preserveAspectRatio="xMidYMid meet">
<metadata>
Created by potrace 1.14, written by Peter Selinger 2001-2017
</metadata>
<g transform="translate(0.000000,282.000000) scale(0.100000,-0.100000)"
fill="#000000" stroke="none">
<path d="M1067 2386 c-74 -26 -83 -32 -140 -85 -96 -89 -113 -233 -36 -307 25
-24 40 -29 97 -32 62 -4 71 -2 99 22 44 37 58 84 39 129 -17 43 -66 71 -107
63 -38 -7 -37 8 4 49 90 90 285 52 313 -61 10 -41 -4 -95 -34 -133 -17 -21
-86 -69 -168 -118 -207 -123 -278 -212 -291 -364 l-6 -69 63 0 c55 0 66 3 97
30 18 17 45 30 59 30 14 0 75 -19 137 -42 100 -38 121 -43 197 -43 75 0 91 3
138 29 85 48 112 101 115 233 l2 78 -65 0 c-65 0 -65 0 -68 -30 -5 -51 -23
-85 -50 -92 -13 -3 -66 2 -116 11 -118 21 -198 20 -263 -3 -61 -21 -67 -13
-20 22 52 39 92 57 251 108 179 58 236 94 279 178 22 44 27 68 27 125 0 88
-23 139 -91 200 -73 66 -140 88 -279 93 -103 3 -122 1 -183 -21z"/>
<path d="M1855 2396 c-2 -6 -6 -81 -9 -166 -4 -85 -9 -185 -13 -222 l-6 -68
75 0 c58 0 79 4 89 17 38 45 138 56 199 22 59 -33 85 -89 85 -179 0 -60 -5
-85 -25 -123 -46 -91 -153 -128 -248 -87 -29 12 -52 26 -52 30 0 5 13 11 30
15 40 9 80 58 80 98 0 77 -73 134 -158 124 -85 -9 -136 -74 -129 -163 10 -140
134 -230 332 -241 258 -15 439 114 453 322 9 149 -44 244 -172 310 -74 38 -83
40 -185 43 -101 4 -128 -1 -203 -33 -16 -6 -18 0 -18 60 0 57 2 66 16 61 9 -3
53 -9 98 -12 153 -12 324 39 386 114 32 38 39 79 16 88 -7 3 -56 -2 -109 -10
-116 -19 -284 -20 -425 -2 -74 9 -105 10 -107 2z"/>
<path d="M390 2380 c0 -5 -16 -28 -36 -50 -38 -42 -106 -70 -171 -70 l-33 0 0
-60 0 -60 85 0 85 0 0 -254 c0 -214 -2 -255 -15 -266 -8 -7 -47 -15 -85 -18
l-70 -5 0 -58 0 -59 300 0 300 0 0 60 0 60 -54 0 c-30 0 -66 4 -80 10 l-26 9
-2 383 -3 383 -97 3 c-63 2 -98 -1 -98 -8z"/>
<path d="M280 1360 c0 -21 4 -28 14 -24 8 3 24 1 35 -6 20 -10 21 -19 21 -149
0 -159 -10 -184 -69 -184 -45 0 -62 19 -28 32 60 23 16 111 -47 95 -57 -14
-63 -89 -13 -139 57 -57 174 -60 229 -5 l28 28 0 149 c0 81 4 154 8 160 4 7
19 14 32 16 18 3 26 11 28 30 l3 27 -120 0 -121 0 0 -30z"/>
<path d="M683 1373 c-3 -10 -30 -92 -61 -183 -53 -155 -59 -166 -90 -180 -23
-11 -31 -21 -30 -35 3 -18 12 -20 101 -23 l97 -3 0 25 c0 19 -6 25 -27 28 -31
3 -39 22 -24 61 10 25 14 27 75 27 56 0 67 -3 76 -21 19 -34 9 -64 -23 -67
-23 -3 -28 -8 -25 -25 2 -14 11 -23 25 -25 l22 -3 -21 -34 c-14 -24 -18 -43
-13 -64 8 -36 67 -91 97 -91 20 0 20 1 -6 25 -32 30 -35 85 -6 133 18 30 23
32 76 32 l56 0 -4 30 c-4 26 0 31 31 44 40 16 46 14 38 -9 -4 -8 -18 -15 -32
-15 -20 0 -25 -5 -25 -25 0 -24 3 -25 55 -25 l55 0 -45 -67 c-50 -74 -121
-209 -155 -296 -12 -31 -28 -57 -35 -57 -24 0 -190 -89 -249 -134 -105 -80
-122 -136 -52 -170 35 -17 46 -18 93 -8 122 25 184 80 261 228 46 91 58 106
119 152 37 28 86 66 107 84 l40 33 -37 -66 c-55 -97 -48 -129 28 -129 44 0 70
14 127 68 l37 35 -6 -36 c-7 -47 9 -67 54 -67 50 0 79 19 172 114 46 47 85 86
87 86 2 0 -13 -35 -35 -77 -60 -122 -60 -123 -10 -123 40 0 46 4 141 105 55
58 106 105 114 105 9 0 3 -21 -21 -72 -52 -109 -45 -138 32 -138 39 0 48 5 91
50 l48 50 -4 -35 c-6 -47 11 -65 62 -65 41 0 89 23 135 64 13 11 22 17 20 11
-2 -5 -10 -26 -18 -46 -12 -31 -26 -42 -100 -78 -181 -90 -261 -159 -247 -216
9 -34 62 -50 126 -36 112 24 168 74 232 207 39 82 40 82 98 104 55 20 60 21
82 6 27 -19 110 -21 159 -4 39 13 129 69 129 80 0 4 -32 -8 -72 -27 -76 -37
-116 -43 -136 -23 -16 16 -15 28 3 28 32 0 144 53 174 82 40 40 43 90 6 114
-37 24 -113 14 -172 -22 -58 -35 -113 -113 -113 -158 0 -29 -5 -33 -47 -49
-25 -9 -48 -16 -50 -14 -2 2 21 55 52 118 30 63 55 120 55 127 0 7 -14 12 -35
12 -25 0 -37 -6 -46 -21 l-11 -21 -14 21 c-19 27 -58 27 -117 2 -46 -20 -90
-59 -189 -168 -87 -98 -101 -82 -42 48 44 99 43 133 -5 137 -31 3 -41 -5 -137
-102 -57 -58 -104 -104 -104 -101 0 3 19 42 42 89 46 93 46 116 -3 116 -28 0
-48 -16 -152 -125 -66 -69 -126 -125 -133 -125 -24 0 -15 40 31 138 25 52 45
99 45 104 0 5 -15 8 -32 6 -29 -3 -43 -16 -103 -96 -89 -119 -175 -186 -175
-136 0 9 25 63 55 119 30 56 52 105 48 109 -3 3 -19 6 -34 6 -21 0 -55 -24
-136 -96 -107 -95 -143 -122 -143 -107 1 4 40 85 88 178 79 155 89 170 116
173 26 3 28 6 23 37 -3 21 0 41 10 54 23 34 10 54 -32 47 -35 -7 -35 -7 -35
29 l0 36 83 -3 82 -3 3 -58 c3 -66 -8 -87 -45 -87 -20 0 -24 -4 -21 -22 3 -22
6 -23 118 -23 112 0 115 1 118 23 3 17 -1 22 -20 22 -44 0 -48 15 -48 172 0
136 1 148 20 158 10 6 25 9 32 8 8 -2 13 7 13 22 l0 25 -115 0 c-109 0 -115
-1 -118 -21 -2 -16 5 -23 30 -30 32 -9 33 -12 36 -67 l3 -57 -86 0 -85 0 0 55
c0 44 4 56 20 65 11 6 25 8 30 5 6 -4 10 7 10 24 l0 31 -116 0 -115 0 3 -27
c2 -19 10 -27 27 -30 14 -2 26 -5 27 -6 2 -1 4 -61 5 -132 l1 -130 -58 -17
c-33 -10 -62 -18 -65 -18 -4 0 -15 26 -26 58 -11 31 -40 112 -63 180 l-42 122
-55 0 c-44 0 -56 -4 -60 -17z m71 -167 c9 -27 16 -53 16 -58 0 -4 -20 -8 -45
-8 -25 0 -45 4 -45 9 0 7 15 55 35 110 8 20 20 4 39 -53z m446 -145 c0 -12
-29 -35 -36 -28 -11 10 5 37 21 37 8 0 15 -4 15 -9z m1430 -330 c0 -35 -146
-139 -166 -118 -22 22 47 120 101 143 35 14 65 3 65 -25z m-360 1 c0 -27 -51
-102 -98 -144 -105 -95 -125 6 -22 112 40 42 55 50 84 50 28 0 36 -4 36 -18z
m-1400 -228 c0 -19 -67 -137 -104 -185 -68 -86 -155 -115 -182 -60 -29 57 41
137 180 207 86 43 106 50 106 38z m1265 -102 c-38 -73 -104 -148 -143 -163
-59 -23 -99 3 -86 55 9 38 86 103 167 142 39 19 77 34 85 34 9 0 1 -23 -23
-68z"/>
<path d="M1527 1383 c-19 -18 -5 -41 28 -47 l35 -7 0 -158 c0 -170 0 -171 -52
-171 -14 0 -19 -6 -16 -22 3 -22 6 -23 123 -23 117 0 120 1 123 23 3 16 -2 22
-16 22 -47 0 -52 8 -52 87 l0 76 46 -7 c26 -3 52 -11 59 -16 7 -6 15 -43 17
-82 5 -62 9 -75 32 -95 41 -35 110 -28 143 16 7 9 13 33 13 54 0 30 -4 37 -19
37 -14 0 -21 -10 -25 -36 -11 -54 -30 -36 -39 37 -8 65 -27 99 -56 99 -9 1 1
10 21 21 45 23 58 45 58 97 0 45 -28 77 -81 92 -38 11 -332 14 -342 3z m302
-68 c21 -20 18 -75 -4 -91 -10 -8 -43 -14 -72 -14 l-53 0 0 58 c0 32 3 62 8
66 11 12 105 -3 121 -19z"/>
<path d="M2050 1361 c0 -17 5 -29 13 -28 49 2 47 8 47 -163 l0 -161 -30 -5
c-23 -5 -30 -12 -30 -30 l0 -24 210 0 210 0 0 90 c0 88 0 90 -24 90 -20 0 -25
-7 -35 -44 -6 -25 -18 -51 -26 -60 -17 -17 -84 -29 -135 -24 l-35 3 -3 73 -3
72 35 0 c37 0 56 -20 56 -59 0 -16 6 -21 25 -21 l25 0 0 105 c0 103 0 105 -23
105 -17 0 -25 -8 -32 -32 -9 -29 -15 -33 -48 -36 l-38 -3 3 63 3 63 79 -2 c91
-2 111 -14 121 -74 6 -33 11 -39 31 -39 23 0 24 2 24 85 l0 85 -210 0 -210 0
0 -29z"/>
</g>
</svg>
