<svg id="Layer_1" data-name="Layer 1" xmlns="http://www.w3.org/2000/svg" viewBox="0 0 30 30"><defs><style>.cls-1{fill:#fff;}</style></defs><path class="cls-1" d="M27.36,3.52h-.88V2.64a2.64,2.64,0,1,0-5.27,0v.88H17.69V2.64a2.64,2.64,0,1,0-5.27,0v.88H8.79V2.64a2.64,2.64,0,1,0-5.27,0v.88H2.64A2.64,2.64,0,0,0,0,6.15V27.36A2.64,2.64,0,0,0,2.64,30H27.36A2.64,2.64,0,0,0,30,27.36V6.15A2.64,2.64,0,0,0,27.36,3.52ZM23,2.64a.88.88,0,0,1,1.76,0V6.15a.89.89,0,0,1-.92.84A.87.87,0,0,1,23,6.15V2.64Zm-8.79,0a.88.88,0,0,1,1.76,0V6.15a.88.88,0,0,1-1.76,0V2.64Zm-8.91,0a.89.89,0,0,1,.92-.84A.87.87,0,0,1,7,2.64V6.15a.88.88,0,0,1-1.76,0V2.64Zm23,24.72a.87.87,0,0,1-.88.88H2.64a.87.87,0,0,1-.88-.88V12.42H28.24V27.36Zm0-16.7H1.76V6.15a.88.88,0,0,1,.88-.88h.87v.88a2.64,2.64,0,1,0,5.28,0V5.27h3.63v.88a2.64,2.64,0,1,0,5.28,0V5.27h3.51v.88a2.64,2.64,0,1,0,5.28,0V5.27h.88a.88.88,0,0,1,.87.88Z"/><path class="cls-1" d="M25.84,14.06H4.63a.88.88,0,0,0-.88.88V25.49a.88.88,0,0,0,.88.88H25.84a.88.88,0,0,0,.88-.88h0V14.94a.88.88,0,0,0-.88-.88ZM9,24.61H5.51V21.09H9Zm0-5.28H5.51V15.82H9v3.52Zm5.39,5.28H10.78V21.09h3.63Zm0-5.28H10.78V15.82h3.63v3.52Zm5.28,5.28H16.17V21.09h3.52v3.52Zm0-5.28H16.17V15.82h3.52v3.52ZM25,24.61H21.44V21.09H25Zm0-5.28H21.44V15.82H25v3.52Z"/></svg>