<svg id="Layer_1" data-name="Layer 1" xmlns="http://www.w3.org/2000/svg" viewBox="0 0 30 30"><defs><style>.cls-1{fill:#fff;}</style></defs><path class="cls-1" d="M27.57,12l-2-2h0L21.47,5.83l-4.71-4.7A2.44,2.44,0,0,0,15,.4a2.48,2.48,0,0,0-1.76.72l0,0L2.42,12.66a1,1,0,0,0-.26.66V27.11A2.48,2.48,0,0,0,4.65,29.6h6.58a1,1,0,0,0,1-1v-11h0a.36.36,0,0,1,.37-.37h4.88a.38.38,0,0,1,.37.37v11a1,1,0,0,0,1,1h6.58a2.48,2.48,0,0,0,2.49-2.49V12.62A1,1,0,0,0,27.57,12ZM25.93,27.11a.58.58,0,0,1-.58.58H19.72v-10a2.28,2.28,0,0,0-2.28-2.28H12.56a2.28,2.28,0,0,0-2.28,2.28h0v10H4.65a.58.58,0,0,1-.57-.58V18.62h0V13.69L14.6,2.48,15,2.31l.4.17,4.71,4.7,4.08,4.08L25.93,13Z"/></svg>