<svg id="Layer_1" data-name="Layer 1" xmlns="http://www.w3.org/2000/svg" viewBox="0 0 30 30"><defs><style>.cls-1,.cls-2,.cls-3{fill:#fff;fill-rule:evenodd;}.cls-1,.cls-3{stroke:#fff;}.cls-1{stroke-width:0.2px;}.cls-3{stroke-width:0.1px;}</style></defs><path class="cls-1" d="M14.94,8.84a.68.68,0,0,0-1.36,0h0a.68.68,0,0,0,1.36,0Z"/><path class="cls-2" d="M14.26,8.16a.68.68,0,1,1,0,1.36h0a.68.68,0,0,1,0-1.36Zm2,.68a2,2,0,1,0-2,2.05,2.05,2.05,0,0,0,2-2.05Z"/><path class="cls-3" d="M24.29,24.29A13.14,13.14,0,0,1,5.71,5.71,13.14,13.14,0,0,1,24.29,24.29ZM4.55,4.55A14.77,14.77,0,1,0,15,.22,14.78,14.78,0,0,0,4.55,4.55Z"/><path class="cls-3" d="M15.82,21.1V14.43a.82.82,0,0,0-.82-.82H12.64a.82.82,0,1,0-.08,1.64h1.62V21.1H11.81a.82.82,0,1,0,0,1.64H18A.82.82,0,1,0,18,21.1H15.82Z"/></svg>