<svg id="Layer_1" data-name="Layer 1" xmlns="http://www.w3.org/2000/svg" viewBox="0 0 30 30"><defs><style>.cls-1{fill:#4e4e4e;}.cls-1,.cls-2{fill-rule:evenodd;}.cls-2{fill:#f9f5f2;}</style></defs><path class="cls-1" d="M15,30A15,15,0,1,0,0,15,15,15,0,0,0,15,30Z"/><path class="cls-2" d="M16,5c1.8,0,2.18,0,3.09.06a7.3,7.3,0,0,1,2.43.47,5.08,5.08,0,0,1,2.92,2.92,7.3,7.3,0,0,1,.47,2.43c0,.91.06,1.29.06,3.09V16c0,1.8,0,2.18-.06,3.09a7.3,7.3,0,0,1-.47,2.43,5.08,5.08,0,0,1-2.92,2.92,7.3,7.3,0,0,1-2.43.47c-.91,0-1.29.06-3.09.06H14c-1.8,0-2.18,0-3.09-.06a7.3,7.3,0,0,1-2.43-.47,5.08,5.08,0,0,1-2.92-2.92,7.3,7.3,0,0,1-.47-2.43C5,18.21,5,17.83,5,16V14c0-1.8,0-2.18.06-3.09a7.3,7.3,0,0,1,.47-2.43A5.08,5.08,0,0,1,8.45,5.53a7.3,7.3,0,0,1,2.43-.47C11.79,5,12.17,5,14,5Zm-.47,1.8H14.44c-1.55,0-2.17,0-2.76,0h-.19l-.53,0A5.67,5.67,0,0,0,9.1,7.2,3.33,3.33,0,0,0,7.2,9.1,5.61,5.61,0,0,0,6.86,11l0,.53v.19c0,.59,0,1.2,0,2.76v1.12c0,1.55,0,2.17,0,2.76v.19l0,.53A5.89,5.89,0,0,0,7.2,20.9a3.33,3.33,0,0,0,1.9,1.9,5.61,5.61,0,0,0,1.86.34l.53,0h.19c.59,0,1.21,0,2.76,0h1.12c1.55,0,2.17,0,2.76,0h.19l.53,0a5.89,5.89,0,0,0,1.86-.34,3.33,3.33,0,0,0,1.9-1.9A5.61,5.61,0,0,0,23.14,19l0-.53v-.19c0-.59,0-1.21,0-2.76V14.44c0-1.55,0-2.17,0-2.76v-.19c0-.18,0-.35,0-.53A6,6,0,0,0,22.8,9.1a3.33,3.33,0,0,0-1.9-1.9A5.61,5.61,0,0,0,19,6.86l-.53,0h-.19C17.73,6.81,17.11,6.8,15.56,6.8ZM15,9.86A5.14,5.14,0,1,1,9.86,15,5.14,5.14,0,0,1,15,9.86Zm0,1.81A3.33,3.33,0,1,0,18.33,15,3.33,3.33,0,0,0,15,11.67Zm5.34-3.21a1.2,1.2,0,0,1,0,2.4h0a1.2,1.2,0,0,1,0-2.4Z"/></svg>