<svg id="Layer_1" data-name="Layer 1" xmlns="http://www.w3.org/2000/svg" viewBox="0 0 52.84 35.96"><defs><style>.cls-1{fill:#fff;}</style></defs><path id="Path_31" data-name="Path 31" class="cls-1" d="M13.75,35.56C6.77,35.56.5,30.43.5,19.06.5,9,6.92.56,24.58.56V2.12C10.9,2.12,4.2,8.24,4.2,14.07c0,2,1,4,3.57,4,2.42,0,3.84-1.28,6.83-1.28a8.76,8.76,0,0,1,9,8.53v.43a9.41,9.41,0,0,1-9,9.82Zm27.93,0c-7,0-13.25-5.13-13.25-16.5C28.43,9,34.84.56,52.5.56V2.12c-13.67,0-20.37,6.12-20.37,12,0,2,1,4,3.56,4s3.85-1.28,6.84-1.28a8.75,8.75,0,0,1,9,8.53,3.08,3.08,0,0,1,0,.43,9.41,9.41,0,0,1-9,9.82Z"/></svg>