<svg id="Layer_1" data-name="Layer 1" xmlns="http://www.w3.org/2000/svg" viewBox="0 0 30 30"><defs><style>.cls-1{fill:#d5d3e1;}.cls-1,.cls-2{fill-rule:evenodd;}.cls-2{fill:#fff;}</style></defs><path class="cls-1" d="M18.82,10.92V22.11a.89.89,0,1,1-1.77,0h0V10.92a.89.89,0,0,1,1.77,0ZM13.2,22.11a.89.89,0,1,1-1.77,0V10.92a.89.89,0,0,1,1.77,0Z"/><path class="cls-2" d="M17.72.39a.88.88,0,0,1,.88.88V3.14h8.77a.89.89,0,0,1,0,1.77h-2V28.73a.87.87,0,0,1-.88.88h-19a.87.87,0,0,1-.88-.88V4.91h-2a.89.89,0,0,1,0-1.77h8.77V1.27a.88.88,0,0,1,.88-.88Zm5.9,4.52H6.41V27.85H23.62V4.91ZM16.83,2.15H13.2v1h3.63Z"/><path class="cls-2" d="M12.31,10a.88.88,0,0,0-.88.88h0V22.11a.89.89,0,1,0,1.77,0V10.92a.88.88,0,0,0-.88-.88h0m4.74.88V22.11a.89.89,0,1,0,1.77,0h0V10.92a.89.89,0,0,0-1.77,0h0"/></svg>