<svg id="Layer_1" data-name="Layer 1" xmlns="http://www.w3.org/2000/svg" viewBox="0 0 30 30"><defs><style>.cls-1{fill:#fff;stroke:#fff;stroke-width:0.1px;}</style></defs><path class="cls-1" d="M26.65,7.66h-.53l-5,.07a14.94,14.94,0,0,0-1.67-4.23,7.5,7.5,0,0,0-2-2.26,4,4,0,0,0-4.91,0c-1.7,1.24-3,3.65-3.69,6.68L2.94,8,.26,29.6l29.48-.47ZM11.79,4.49a6.17,6.17,0,0,1,1.56-1.81,2.58,2.58,0,0,1,3.38,0A9.46,9.46,0,0,1,19.6,7.77l-9.16.14A13.19,13.19,0,0,1,11.79,4.49ZM4,9.2l4.65-.07c-.09.54-.16,1.1-.21,1.67a1.64,1.64,0,0,0-.67,1.34,1.61,1.61,0,0,0,1.55,1.65,1.6,1.6,0,0,0,1.54-1.65A1.64,1.64,0,0,0,10,10.65c.06-.53.13-1,.22-1.54L19.87,9c.1.55.19,1.11.25,1.7a1.66,1.66,0,0,0-.9,1.48,1.55,1.55,0,1,0,3.1,0,1.67,1.67,0,0,0-.68-1.35c-.06-.63-.14-1.25-.24-1.85l4.22-.06L28.36,28l-26.74.43Z"/></svg>