<svg id="Layer_1" data-name="Layer 1" xmlns="http://www.w3.org/2000/svg" viewBox="0 0 30 30"><defs><style>.cls-1{fill:#4e4e4e;}.cls-1,.cls-2{fill-rule:evenodd;}.cls-2{fill:#f9f5f2;}</style></defs><path class="cls-1" d="M15,30A15,15,0,1,0,0,15,15,15,0,0,0,15,30Z"/><path class="cls-2" d="M12.94,17.61V12l5.4,2.84-5.4,2.82ZM24.8,11A4.44,4.44,0,0,0,24,9a2.86,2.86,0,0,0-2-.85c-2.8-.2-7-.2-7-.2h0s-4.2,0-7,.2A2.89,2.89,0,0,0,6,9a4.38,4.38,0,0,0-.79,2A30.68,30.68,0,0,0,5,14.23v1.53A30.68,30.68,0,0,0,5.2,19,4.34,4.34,0,0,0,6,21a3.38,3.38,0,0,0,2.21.86c1.6.16,6.8.2,6.8.2s4.2,0,7-.21A2.81,2.81,0,0,0,24,21a4.4,4.4,0,0,0,.8-2,30.68,30.68,0,0,0,.2-3.26V14.23A30.68,30.68,0,0,0,24.8,11Z"/></svg>