<svg xmlns="http://www.w3.org/2000/svg" width="52" height="35" viewBox="0 0 52 35">
    <path fill="#FFF" d="M13.25 35C6.27 35 0 29.88 0 18.5 0 8.4 6.41 0 24.08 0v1.56C10.4 1.56 3.7 7.69 3.7 13.53c0 1.99 1 3.98 3.57 3.98 2.42 0 3.84-1.28 6.83-1.28a8.76 8.76 0 0 1 8.98 8.96c0 5.55-3.85 9.82-9.83 9.82zm27.92 0c-6.98 0-13.25-5.12-13.25-16.5C27.92 8.4 34.33 0 52 0v1.56c-13.68 0-20.37 6.12-20.37 11.96 0 1.99 1 3.98 3.56 3.98 2.42 0 3.85-1.28 6.84-1.28A8.76 8.76 0 0 1 51 25.18c0 5.55-3.84 9.82-9.83 9.82z" />
</svg>