<?xml version="1.0" encoding="utf-8"?>
<!-- Generator: Adobe Illustrator 24.3.0, SVG Export Plug-In . SVG Version: 6.00 Build 0)  -->
<svg version="1.1" id="Ebene_1" xmlns="http://www.w3.org/2000/svg" xmlns:xlink="http://www.w3.org/1999/xlink" x="0px" y="0px"
	 viewBox="0 0 550 309.2" style="enable-background:new 0 0 550 309.2;" xml:space="preserve">
<style type="text/css">
	.st0{clip-path:url(#SVGID_2_);fill:#9D191A;}
	.st1{clip-path:url(#SVGID_2_);fill:#3D3935;}
</style>
<g>
	<defs>
		<rect id="SVGID_1_" width="550" height="309.2"/>
	</defs>
	<clipPath id="SVGID_2_">
		<use xlink:href="#SVGID_1_"  style="overflow:visible;"/>
	</clipPath>
	<path class="st0" d="M236.8,66.5h20.1c5.7-6.1,10.8-8.5,19-8.5c15,0,23.9,10.4,23.9,27.9c0,19.4-10.8,31.7-27.7,31.7
		c-7,0-11.8-1.7-20.1-7c11.4-1.5,16.9-6.5,16.9-15.8c0-10.1-7.8-17.5-19-17.5c-12.9,0-21.5,8.9-21.5,22c0,21.3,20.7,35.9,51.5,35.9
		c35.9,0,60-19.6,60-49.2c0-15.4-5.9-28.1-16.9-35.9c-10.6-7.4-23.2-11.2-37.4-11.2c-11,0-16.3,1.3-28.1,7l0.6-18.4
		c9.9,1.5,15.4,2.1,20.9,2.1c16.9,0,32.1-3.6,42.2-9.9c6.5-4.2,11.4-10.6,11.4-15c0-2.7-1.5-4-4.4-4H327c-25.1,3.8-25.1,3.8-38,3.8
		c-16.9,0-26.4-0.6-48.6-3.6L236.8,66.5z M115.8,131.4c3.6-6.1,6.5-8.2,12-8.2c4.9,0,10.6,1.5,19.4,5.1c13.9,5.9,18.4,7,27,7
		c15.2,0,27.5-6.3,32.7-16.5c3-5.9,4.2-13.7,4.2-24.7c0-1.7,0-4.2-0.2-7.6h-18.4c-0.2,13.3-3.4,18-11.4,18c-1.5,0-3-0.2-4-0.4
		c-21.1-4.4-21.1-4.4-28.7-4.4c-9.5,0-15,1.5-26.2,7c8.9-10.4,14.4-13.5,33.8-19.2c22.8-6.5,27.3-8.4,36.1-14.6
		c10.4-7.2,15.8-17.7,15.8-30.2c0-25.6-22-42.5-55.6-42.5c-31.1,0-54.7,17.7-54.7,41.2c0,13.9,8.7,23.2,21.8,23.2
		c11.4,0,19.6-7.4,19.6-17.5c0-7.8-6.1-14.2-14.2-14.2c-1.5,0-4.2,0.4-7,1.1c2.7-5.5,4.6-8,7.6-9.9c4.2-2.7,10.6-4.4,16.9-4.4
		c15.2,0,25.1,7.8,25.1,19.9c0,9.9-5.1,17.1-17.1,24.1c-28.3,16.3-30,17.3-38.2,25.8c-9.3,9.7-14.8,22.4-14.8,34.4
		c0,2.3,0,4.2,0.4,7.8H115.8z M0,131.4h85.6v-17.5h-8.5c-14.2,0-15.2-1.1-15.2-15V3.6h-27C29.6,15.8,20.5,20.7,0,21.5v17.1h24.9
		v59.1c0,9.7-0.2,11.2-1.3,12.7c-1.5,1.9-7.6,3.4-14.2,3.4H0V131.4z"/>
	<path class="st0" d="M327.3,143.9h-60.4v7.5h3.5c5.2,0,5.8,0.6,5.8,5.6v35c0,5-0.6,5.6-5.8,5.6h-3.5v7.5h60.3v-25.6h-7.6
		c-0.5,6.6-1.1,9.7-2.8,12.8c-2.2,4.1-5.4,5.3-14.7,5.3h-11V177h3.4c6.2,0,8.2,2.1,8.2,8.5v2.8h7.5v-29.2h-7.5
		c-0.3,8.8-1.5,10.2-8.2,10.2h-3.4v-18h12c7.4,0,10.3,0.6,12.5,2.8c2.5,2.3,3.4,5.4,4.1,13.5h7.5V143.9z M218.1,169.3v-17.9h6
		c8.1,0,9.4,0.2,11.8,1.9c2,1.5,3,3.8,3,6.9c0,3.2-1.2,5.9-3.2,7.3c-2.3,1.5-4.9,1.8-12.1,1.8H218.1z M193.9,151.4h3.5
		c5.2,0,5.8,0.6,5.8,5.6v35c0,5-0.6,5.6-5.8,5.6h-3.5v7.5H228v-7.5h-4.1c-5.2,0-5.8-0.6-5.8-5.6v-15.3h8.8c3.5,0,5,0.6,6.5,2.1
		c1.5,1.6,2.3,3.9,2.4,7l0.1,6.2c0.1,6.4,0.7,9,2.9,11.2c2.3,2.4,6.2,3.9,10.3,3.9c4.7,0,8.8-1.9,11-5.1c1.9-2.8,2.6-6,2.6-12.5
		v-1.5h-6.5c-0.1,8.5-0.6,10.1-2.9,10.1c-1.9,0-2.4-1.2-2.6-5.9l-0.2-6.4c-0.6-7.8-2.7-10.2-10.6-12.1c5-1.4,7.1-2.3,9.5-4
		c3.3-2.4,5.1-6.2,5.1-10.7c0-4.7-2.1-8.9-5.6-11.3c-3.9-2.6-9-3.7-17.3-3.7h-37.8V151.4z M151.6,143.9h-32.9v7.5h3.5
		c5.2,0,5.8,0.6,5.8,5.6v35c0,5-0.6,5.6-5.8,5.6h-3.5v7.5h32.9v-7.5H148c-4.6,0-5-0.6-5-5.6v-14.5h23V192c0,5-0.5,5.6-5.1,5.6h-3.6
		v7.5h32.9v-7.5h-3.5c-5.2,0-5.8-0.6-5.8-5.6v-35c0-5,0.6-5.6,5.8-5.6h3.5v-7.5h-32.9v7.5h3.6c4.6,0,5.1,0.6,5.1,5.6v12.6h-23V157
		c0-5,0.5-5.6,5-5.6h3.6V143.9z M88.5,177.9H74.9l6.7-19.7L88.5,177.9z M117.9,197.6h-2.3c-4.4,0-5.3-0.7-7.2-6.2L92,143.9H76.4
		l-16.1,47.2c-1.1,3.3-1.5,4-2.6,5c-1.2,1-2.8,1.6-4.4,1.6h-3v7.5h27.5v-7.5H74c-3.5,0-4.6-0.6-4.6-2.4c0-0.8,0.3-2,0.6-3.1l2.3-6.6
		H91l2.3,6.3c0.5,1.2,0.7,2.4,0.7,3c0,2.2-1.2,2.8-5.6,2.8h-3.3v7.5h32.8V197.6z M18.6,151.4h4.1c5.3,0,5.9,0.6,5.9,5.6v27.5
		c0,6.8-0.3,8.7-1.6,10.7c-1.4,2.2-4.4,3.6-7.9,3.6c-3.8,0-5.4-0.7-8-3.5c5.4-0.5,8.1-2.8,8.1-7.4c0-4.5-3.3-7.7-8-7.7
		c-5.7,0-9.5,4.3-9.5,10.6c0,9.4,8.9,16,21.7,16c8.2,0,14.3-2.6,17.4-7.3c2.2-3.4,2.8-6.6,2.8-15V157c0-5,0.6-5.6,5.8-5.6h3v-7.5
		H18.6V151.4z"/>
	<path class="st1" d="M304.9,300.5h1.5c2.3,0,2.5-0.2,2.5-2.4v-15.2c0-2.1-0.2-2.4-2.5-2.4h-1.5v-2.9h14.6c9,0,13.7,4.4,13.7,12.9
		c0,8.5-4.7,12.9-13.7,12.9h-14.6V300.5z M317.7,300.5c4,0,5.8-0.5,7.1-2.1c1.5-1.7,2.3-4.5,2.3-7.9c0-3.4-0.9-6.3-2.3-7.9
		c-1.4-1.5-3.1-2.1-7.1-2.1h-3.4v20H317.7z"/>
	<path class="st1" d="M335.8,300.9h1.4c1.8,0,2.2-0.4,2.2-2.3v-8.4c0-1.9-0.4-2.3-2.2-2.3h-1.4v-2.6h8.3v13.3c0,1.9,0.4,2.3,2.2,2.3
		h1.2v2.6h-11.7V300.9z M344.3,280.2c0,1.6-1.3,2.9-2.8,2.9c-1.6,0-2.9-1.3-2.9-2.9c0-1.5,1.3-2.8,2.9-2.8
		C343,277.3,344.3,278.6,344.3,280.2"/>
	<path class="st1" d="M366.8,297c-0.5,2.8-1.2,4.1-2.8,5.3c-1.5,1.2-3.5,1.9-5.9,1.9c-5.7,0-9.4-3.9-9.4-9.7c0-5.8,3.8-9.8,9.6-9.8
		c2.9,0,5.1,0.9,6.5,2.7c1.4,1.7,1.9,3.5,2.1,7.4h-12.9c0.2,2.4,0.5,3.5,1.2,4.6c0.9,1.2,2,1.7,3.6,1.7c1.3,0,2.5-0.3,3.2-1
		c0.7-0.6,1.1-1.4,1.5-3.1H366.8z M361.8,292c-0.4-3.6-1.4-4.8-3.6-4.8c-2.3,0-3.5,1.4-4.1,4.8H361.8z"/>
	<path class="st1" d="M376.4,300.5h1.5c2.3,0,2.5-0.2,2.5-2.4V283c0-2.2-0.2-2.4-2.5-2.4h-1.5v-2.9h14.8c6.4,0,9.6,2.1,9.6,6.4
		c0,3.2-1.4,4.7-5.2,5.8c2.2,0.5,3.1,1,4.1,1.8c1.4,1.1,2.1,2.8,2.1,4.9c0,2.2-0.8,4-2.2,5.1c-1.8,1.4-4.2,1.9-9.1,1.9h-14.1V300.5z
		 M389.5,288.6c2.7,0,3.8-0.3,4.8-1.2c0.7-0.7,1.1-1.6,1.1-2.8c0-1.4-0.4-2.4-1.2-3.1c-0.9-0.7-2-0.9-4.2-0.9h-4.1v8H389.5z
		 M390.1,300.6c2.4,0,3.8-0.3,4.7-1c0.9-0.7,1.4-2,1.4-3.5c0-1.5-0.5-2.7-1.4-3.4c-1-0.8-2.3-1.1-5-1.1h-3.9v9H390.1z"/>
	<path class="st1" d="M425.2,296.7c0,3-0.2,4-0.5,5c-0.7,1.7-2.1,2.5-4.3,2.5c-2.3,0-3.4-0.8-4.1-2.9c-1.9,2.2-3.4,2.9-6.2,2.9
		c-3.3,0-5.5-2-5.5-5c0-2,1-3.6,2.9-4.5c1.3-0.7,2.7-1.1,5.5-1.8c2.5-0.6,3.4-1.4,3.4-3.1c0-2-1.4-3.1-4.1-3.1
		c-1.6,0-2.5,0.3-3.6,1.1c1.8,0.1,2.6,0.7,2.6,2.1c0,1.4-1.1,2.4-2.7,2.4c-1.8,0-3.1-1.2-3.1-3c0-2.9,3-4.8,7.5-4.8
		c2.5,0,4.8,0.5,6,1.4c1.5,1.1,1.9,2.1,1.9,5.5v8.1c0,0.9,0.3,1.4,0.9,1.4c0.9,0,1.2-0.9,1.2-3.8v-0.4H425.2z M412.4,279.1
		c0,1.5-1.2,2.7-2.6,2.7c-1.5,0-2.8-1.2-2.8-2.7c0-1.4,1.3-2.7,2.8-2.7C411.2,276.4,412.4,277.6,412.4,279.1 M416.1,294
		c-0.9,0.5-1.5,0.8-1.9,0.9l-2,0.8c-1.7,0.7-2.6,1.8-2.6,3.1c0,1.4,0.9,2.2,2.4,2.2c1.1,0,2.1-0.4,2.9-1.2c0.9-0.9,1.2-1.9,1.2-3.6
		V294z M419.7,279.1c0,1.5-1.2,2.7-2.6,2.7c-1.6,0-2.8-1.2-2.8-2.7c0-1.4,1.3-2.7,2.7-2.7C418.5,276.4,419.7,277.6,419.7,279.1"/>
	<path class="st1" d="M444.4,295.9c-0.3,2.9-0.7,4.3-1.8,5.7c-1.4,1.7-3.5,2.5-6.3,2.5c-5.7,0-9.3-3.8-9.3-9.6c0-5.9,4.1-9.8,10-9.8
		c4.4,0,7.6,2.4,7.6,5.6c0,2-1.2,3.3-3,3.3c-1.6,0-2.8-1-2.8-2.6c0-1.4,0.7-2.1,2.2-2.4c-1.5-1.1-2.2-1.4-3.6-1.4
		c-3.3,0-5.2,2.6-5.2,7.2c0,4.2,1.6,6.3,4.8,6.3c2.7,0,3.9-1.3,4.5-4.7H444.4z"/>
	<path class="st1" d="M459.7,289.4c0.5-0.4,0.7-0.7,0.7-0.9c0-0.4-0.3-0.5-1.4-0.5h-2.1v-2.6h11.5v2.6h-0.8c-1.3,0-1.9,0.3-3.4,1.4
		l-3.6,2.9l4.6,6.4c1,1.5,2.2,2.2,3.6,2.2h0.9v2.6h-11.2v-2.6h1.3c0.6,0,1.1-0.2,1.1-0.6c0-0.2-0.2-0.7-0.5-1l-3.1-4.5l-3.6,2.9v0.9
		c0,1.9,0.4,2.3,2.2,2.3h0.5v2.6H446v-2.6h1c1.8,0,2.2-0.4,2.2-2.3v-16.1c0-1.9-0.4-2.3-2.2-2.3h-1v-2.6h7.9v16.5L459.7,289.4z"/>
	<path class="st1" d="M488.6,297c-0.5,2.8-1.2,4.1-2.8,5.3c-1.5,1.2-3.5,1.9-5.9,1.9c-5.7,0-9.4-3.9-9.4-9.7c0-5.8,3.8-9.8,9.6-9.8
		c2.9,0,5.1,0.9,6.5,2.7c1.4,1.7,1.9,3.5,2.1,7.4h-12.9c0.2,2.4,0.5,3.5,1.2,4.6c0.9,1.2,2,1.7,3.6,1.7c1.3,0,2.5-0.3,3.2-1
		c0.7-0.6,1.1-1.4,1.6-3.1H488.6z M483.7,292c-0.4-3.6-1.4-4.8-3.6-4.8c-2.3,0-3.5,1.4-4.1,4.8H483.7z"/>
	<path class="st1" d="M502.6,303.5h-12.2v-2.6h1.2c1.8,0,2.2-0.4,2.2-2.3v-8.4c0-1.9-0.4-2.3-2.2-2.3h-1.2v-2.6h8.1v2.8
		c1.5-2.4,2.8-3.3,4.9-3.3c2.6,0,4.6,1.8,4.6,4.2c0,1.9-1.3,3.3-3.1,3.3c-1.6,0-2.6-0.9-2.6-2.4c0-1.3,0.7-2.1,2.3-2.6
		c-0.7-0.2-1.3-0.4-1.7-0.4c-1,0-2.3,0.8-3.1,2c-0.8,1.2-1.2,2.9-1.2,4.8v4.9c0,1.9,0.4,2.3,2.2,2.3h1.9V303.5z"/>
	<path class="st1" d="M527.6,297c-0.5,2.8-1.2,4.1-2.8,5.3c-1.5,1.2-3.5,1.9-5.9,1.9c-5.7,0-9.4-3.9-9.4-9.7c0-5.8,3.8-9.8,9.6-9.8
		c2.9,0,5.1,0.9,6.5,2.7c1.4,1.7,1.9,3.5,2.1,7.4h-12.9c0.2,2.4,0.5,3.5,1.2,4.6c0.9,1.2,2,1.7,3.6,1.7c1.3,0,2.5-0.3,3.2-1
		c0.7-0.6,1.1-1.4,1.5-3.1H527.6z M522.6,292c-0.4-3.6-1.4-4.8-3.6-4.8c-2.3,0-3.5,1.4-4.1,4.8H522.6z"/>
	<path class="st1" d="M529.3,300.9h1.4c1.8,0,2.2-0.4,2.2-2.3v-8.4c0-1.9-0.4-2.3-2.2-2.3h-1.4v-2.6h8.3v13.3c0,1.9,0.4,2.3,2.2,2.3
		h1.2v2.6h-11.7V300.9z M537.8,280.2c0,1.6-1.3,2.9-2.8,2.9c-1.6,0-2.9-1.3-2.9-2.9c0-1.5,1.3-2.8,2.9-2.8
		C536.5,277.3,537.8,278.6,537.8,280.2"/>
	<path class="st1" d="M550,301.3c0,1.6-1.3,2.9-2.8,2.9c-1.6,0-2.9-1.3-2.9-2.9c0-1.5,1.3-2.8,2.9-2.8
		C548.7,298.4,550,299.7,550,301.3"/>
	<path class="st1" d="M132.6,226.7c2.7-6.3,11.2-22.8,20.4-35.1c1.1-1.4,1.6-2.5,1.6-3.2c0-1.9-2.5-2.4-4.2-2.2
		c-16.5,1.3-40,5.7-51.8,14c-23.2,15.9-5.6,31.8,2.8,32.1c2.7,0,2.6-1.4-0.6-2.9c-4.8-2.1-11.5-18.2,10.5-29.9
		c8-4.6,27.6-9.9,36.3-10.7c4.1-0.2-4.1,4.8-12.7,16.1c-5.2,6.5-11.1,15.4-16.4,25.3c-5.3,9.9-8.5,16.6-15.1,33.2
		c-11.4,4.2-17.2,6.9-25.6,11.9c-17.7,10.5-27.7,20-24.4,27.7c2.5,6,10.7,6.1,13.8,6.1c9.6,0,18.7-5,23.9-8.9
		c10.6-7.9,14.2-16.9,21.2-31.7l3.1-6.4c12-7.8,26.7-19.9,32-26c0.1-0.1,0.3-0.1,0.2,0.1c-3.1,4.4-8.1,13.1-10.3,17.5
		c-1.2,2.6-2,4.8-1.6,7c0.5,3.1,2.8,5.7,8.4,5.7c8.2,0,14.2-6.4,18.2-9.9c2.3-2.1,5.2-5,7.3-7.6c0,0,0.5-0.5,0.5-0.4
		c0,0.1-0.2,0.5-0.2,0.5c-0.9,1.5-1.7,2.9-2.2,3.9c-1,1.9-1.7,4.3-1.6,6.2c0.2,2.9,1.4,7.3,9.3,7.3c6.2,0,12-4.7,14.9-7.6
		c2.7-2.6,20.5-22.1,21.1-22.4c1.1-0.7-0.7,2.4-2.1,5.4c-1.8,3.9-9.3,18.4-10.2,21.6c-0.7,2.4,1.1,3,4.5,3c4,0.1,6.2,0,7.8-1.5
		c5.9-5.8,10.2-11.9,16.5-18.2c5.2-5.1,6.2-6.2,8.9-8.7c1.6-1.5,3.4-2.5,4.9-1.3c0.7,0.6-0.7,3.1-1.2,3.9c-1.2,2.4-8.2,14.6-8,19.3
		c0.1,2.5,1.4,6.7,9.8,6.6c6-0.1,9.9-4.5,12.9-7.7c2.1-2.3,7.6-9.1,7.8-9.3c0.2-0.3,0.3-0.2,0.2-0.1c-1.9,2.9-3,7.8-2.6,10.4
		c0.8,5,3.3,6.7,9.2,6.7c8.2,0,16.8-7,22.8-14.4c0,0-4.1,10.2-6.4,15.4c-10.2,4.4-15.5,7-24.3,11.7c-16.2,8.6-24.8,17.7-21.9,24.6
		c2.2,5.4,9.9,5.4,12.7,5.3c9.5-0.5,16.6-4,21.2-7.4c9.2-6.7,12.1-13.3,18.5-26.4l3.2-6.9c8.3-3.9,11.4-5.2,18-7.5
		c0.5,0.9,0.9,1.5,1.3,1.9c1.9,2.1,4.7,3.7,10.8,3.9c14.1,0,26.5-9.8,31-13.7c0.5-0.5-0.1-1.9-1.1-1.2c-2.9,1.9-16.6,9.9-24.9,9.6
		c-3.9-0.4-5.3-2.5-5.7-4.5c5.5-1.6,31.6-8.1,31.7-21.1c0-6.7-5.3-9.5-12.2-9.5c-6.4,0-13,2.3-18.9,7c-7.5,5.5-14.4,15.4-12.9,24.5
		c-5.3,2-10.6,3.8-15.2,6.4c1.8-3.4,9.1-18.7,16.7-34.8c1.9-3.8-2.3-3.1-4.7-3.1c-6.2,0-5.6,1.4-8.1,6l-0.8,1.5
		c0.3-2.2-1.1-7.5-6.5-7.5c-5.9,0-12.8,2.8-17.5,5.9c-6,3.9-9.8,8.9-12.6,11.9c-2.6,2.8-13,15.2-15.2,16.6c-1.3,0.9-2.8,1.4-3.7,0.9
		c-1.1-0.7-0.9-2.3-0.1-4.2c0.4-0.9,2.6-6.3,5.5-12.1c2.5-5.1,5.2-10.5,5.2-13.3c0-2.4-1.2-5.5-6-5.5c-8.2,0-18,12.9-22.7,17.8
		c-5.3,5.6-11.9,12.7-12.1,13c-0.3,0.2-0.4-0.1-0.3-0.4c0.1-0.3,3.3-6.8,5.1-10.3c2.5-5.1,7.6-14.3,7.1-16.6
		c-0.5-2.6-2.5-3.5-7.6-3.5c-4.5,0-8.1,6-18.1,16c-6.1,6.1-15.2,16.3-16.9,17.6c-1.4,1.1-3.6,1.8-4.6,1.1c-0.9-0.7-1.8-1.9-1.2-3.8
		c0.7-1.9,1.6-3.9,3.4-7.7c2.3-4.8,8.7-17.2,10.4-20.5c1.3-2.5-0.7-2.7-4.5-2.7c-3.2,0-4.8,0.5-6.3,1.9
		c-4.9,5.1-12.5,18.4-18.5,24.1c-4.4,4.1-6.6,6.3-9.9,8.2c-1.8,1-4.1,1.2-4.8,0.7c-0.7-0.5-0.7-1.8-0.2-2.9
		c0.9-2.6,4.1-8.7,6.1-12.6c2.5-4.9,6.6-12.9,8.4-16.5c1-2-0.8-2.7-4.7-2.7c-5.4,0-5,0.5-8.4,3.8c-1.1,0.9-21.2,19.6-32.3,27.2
		c1-1.9,6-12,6-12L132.6,226.7z M344.3,231.3c2.1,0,4.7,0.9,4.4,5.5c-0.4,6.6-15,14.7-23.9,16.8C324.2,245.8,336,231.3,344.3,231.3
		 M99.7,273.1c-4,9.1-6.7,13.6-10.9,19.1c-6.3,8.2-12.9,14.3-21.7,14.4c-2.7-0.1-5.2-1.2-6.4-4.5c-2.1-6.1,2.5-15.2,17.9-24.4
		c6.2-3.6,15.2-8,23.3-10.6C101.7,268.1,99.7,273.1,99.7,273.1 M276.8,288c-1.4,2.2-2.9,4.1-4.5,6.2c-5.7,7.3-11.7,12.4-19.5,12.4
		c-2.4-0.1-4.5-1.6-5.1-3.6c-1.6-5.5,1.6-13.2,15.4-21.3c6.4-4,13.3-7,21.7-10C283.5,274.8,279.8,283.4,276.8,288 M289,252.6
		c-4,3.9-9.4,8.7-13,9c-1.1,0.1-3-0.2-3.5-2.6c-0.4-2.2,0-6.9,4.8-13.5c4.7-6.4,10.8-12.5,17.7-12.5c2.4,0.1,3.4,0.9,3.6,3.1
		C298.9,238.8,293.1,248.6,289,252.6"/>
</g>
</svg>
