<svg id="Layer_1" data-name="Layer 1" xmlns="http://www.w3.org/2000/svg" viewBox="0 0 93 93"><defs><style>.cls-1{fill:#fff;}</style></defs><path class="cls-1" d="M71.14,66.51h-.9V43a7.34,7.34,0,0,0,3.39-6.18.79.79,0,0,0-.1-.4l-6.29-11a2.48,2.48,0,0,0-2.16-1.25h-37a2.46,2.46,0,0,0-2.15,1.25l-6.29,11a.8.8,0,0,0-.11.4A7.34,7.34,0,0,0,22.93,43V66.51H22a.8.8,0,0,0,0,1.59H71.14a.8.8,0,1,0,0-1.59Zm-50-28.9h2.54A.79.79,0,1,0,23.78,36H21.7l5.61-9.82a.89.89,0,0,1,.78-.46h37a.9.9,0,0,1,.79.46L71.48,36h-2a.8.8,0,0,0,0,1.59H72a5.77,5.77,0,0,1-11.43,0h5.51a.8.8,0,0,0,0-1.59h-39a.8.8,0,0,0-.05,1.59h5.55a5.77,5.77,0,0,1-11.43,0Zm37.69,0a5.77,5.77,0,0,1-11.43,0Zm-13.13,0a5.77,5.77,0,0,1-11.43,0Zm18.69,28.9H55.85V63.86h8.58Zm0-4.23H55.85V47.78h8.58Zm4.23,4.23H66V47a.79.79,0,0,0-.79-.79H55.06a.79.79,0,0,0-.8.79h0V66.51H24.51V43.77a7.34,7.34,0,0,0,9-3.64,7.35,7.35,0,0,0,13.13,0,7.35,7.35,0,0,0,9.88,3.25,7.28,7.28,0,0,0,3.24-3.25,7.35,7.35,0,0,0,8.95,3.64Z"/><path class="cls-1" d="M50.82,46.19H28a.79.79,0,0,0-.79.79V63.07a.79.79,0,0,0,.79.79H50.83a.79.79,0,0,0,.79-.79V47a.79.79,0,0,0-.79-.79ZM50,62.28H28.75V47.77H50Z"/><path class="cls-1" d="M46.5,1v.5A45,45,0,1,1,14.68,14.68,44.88,44.88,0,0,1,46.5,1.5V.5a46,46,0,1,0,46,46,46,46,0,0,0-46-46Z"/></svg>