<svg id="Layer_1" data-name="Layer 1" xmlns="http://www.w3.org/2000/svg" viewBox="0 0 93 93"><defs><style>.cls-1{fill:#fff;}</style></defs><path class="cls-1" d="M46.5,1v.5A45,45,0,1,1,14.68,14.68,44.88,44.88,0,0,1,46.5,1.5V.5a46,46,0,1,0,46,46,46,46,0,0,0-46-46Z"/><path class="cls-1" d="M39.37,36.29c2,0,4,0,5.91,0,.15,0,.4-.39.42-.6,0-.94,0-1.89,0-2.84s.36-1.47,1.16-1.47,1.18.44,1.19,1.44,0,1.89,0,2.84c0,.45.12.68.63.67,1.69,0,3.39,0,5.08,0,.5,0,.65-.18.64-.66,0-.92,0-1.84,0-2.76s.4-1.52,1.21-1.54,1.16.45,1.17,1.54c0,.85,0,1.7,0,2.54,0,.27,0,.54.06.8a24.37,24.37,0,0,1,2.43.21,6,6,0,0,1,5,6.1c0,2.67,0,5.33,0,8a.89.89,0,0,0,.73,1h0a6.13,6.13,0,0,1,4.25,5.72c0,4.11,0,8.22,0,12.33,0,1-.41,1.44-1.45,1.44H26c-1,0-1.46-.4-1.46-1.43,0-4.14,0-8.27,0-12.41a6.08,6.08,0,0,1,4.32-5.67.81.81,0,0,0,.7-.92v0c0-2.64,0-5.28,0-7.92a6.12,6.12,0,0,1,5.83-6.4h.55c1.1,0,1.09,0,1.1-1.09,0-.9,0-1.8,0-2.69a1.08,1.08,0,0,1,1-1.17h.18a1.14,1.14,0,0,1,1.21,1.07v.16C39.38,33.76,39.37,35,39.37,36.29ZM27,58.74c0,.28-.06.48-.06.67,0,2.81,0,5.63,0,8.44,0,.69.22.89.9.88q19.13,0,38.26,0c.69,0,.89-.21.89-.89,0-2.81,0-5.63,0-8.44a5,5,0,0,0-.08-.66,6.45,6.45,0,0,0-3.15,1.18A8.36,8.36,0,0,1,61.19,61a4.79,4.79,0,0,1-4.09-1.21,3.84,3.84,0,0,0-5.23-.18l-.2.12a8.73,8.73,0,0,1-9.54,0c-2-1.29-3.75-1.3-5.64.22A5,5,0,0,1,30,59.86,5,5,0,0,0,27,58.74Zm5-7.5H59.67c.71,0,1.65.18,2.06-.2s.15-1.3.15-2c0-1,0-2,0-3a5,5,0,0,1-4.42-.91c-2-1.69-3.88-1.62-6-.2a8.11,8.11,0,0,1-7.1.88,17.17,17.17,0,0,1-3.15-1.5,3.18,3.18,0,0,0-3.76.13c-1.62,1.19-3.31,2.16-5.49,1.6Zm34.85,5a15.42,15.42,0,0,0-1-1.5,4.11,4.11,0,0,0-3.28-1.15H31.31a10.69,10.69,0,0,0-1.27.08,3.47,3.47,0,0,0-2.83,2.58,9.38,9.38,0,0,1,4.62,1.92,2.25,2.25,0,0,0,2.71.12c.67-.39,1.3-.84,2-1.24A5.29,5.29,0,0,1,42,57c.66.35,1.3.74,2,1.07a5.49,5.49,0,0,0,4.12.54A19.11,19.11,0,0,0,51.58,57a5.35,5.35,0,0,1,5.85.14c.63.4,1.24.84,1.89,1.2a2,2,0,0,0,2.27.07A10.55,10.55,0,0,1,66.79,56.27ZM46.93,38.67c-2.6,0-5.19,0-7.78,0-1.32,0-2.64,0-4,.07a3.72,3.72,0,0,0-3.29,3.58c0,1.12.61,1.66,1.72,1.39a5.14,5.14,0,0,0,1.23-.53c.52-.29,1-.64,1.5-1A5.29,5.29,0,0,1,42,42c.67.34,1.3.73,2,1.06a6.24,6.24,0,0,0,5.82,0c.67-.33,1.31-.71,2-1.06a5.27,5.27,0,0,1,5.66.22c.58.37,1.16.77,1.77,1.11a2.2,2.2,0,0,0,2.2.23,1.05,1.05,0,0,0,.46-.65,3.5,3.5,0,0,0-.07-1.25,3.77,3.77,0,0,0-4-3c-3.62,0-7.23,0-10.84,0Z"/><path class="cls-1" d="M38.37,22.63c.66.92,1.39,1.8,2,2.77a2.15,2.15,0,0,1-.65,2.79,2.43,2.43,0,0,1-3,0,2.13,2.13,0,0,1-.78-2.69A31.81,31.81,0,0,1,38,22.59Z"/><path class="cls-1" d="M55.49,22.5A8.68,8.68,0,0,1,58,26a2.36,2.36,0,0,1-1.17,2.4A2.41,2.41,0,0,1,54,28.11a2.07,2.07,0,0,1-.64-2.54C54,24.53,54.73,23.58,55.49,22.5Z"/><path class="cls-1" d="M47.07,22.59c.68.95,1.43,1.87,2,2.88a2.14,2.14,0,0,1-.69,2.72,2.38,2.38,0,0,1-3,0,2.12,2.12,0,0,1-.67-2.73c.58-1,1.34-1.92,2-2.87Z"/></svg>