<svg id="Layer_1" data-name="Layer 1" xmlns="http://www.w3.org/2000/svg" viewBox="0 0 93 93"><defs><style>.cls-1,.cls-2{fill:#fff;}.cls-1{fill-rule:evenodd;}</style></defs><path class="cls-1" d="M63.73,46.86a8,8,0,1,0-7.17-14.39,7.74,7.74,0,0,0-1,.56l0-.07a10.2,10.2,0,0,0-18.49.62c0-.13,0-.2,0-.2a8,8,0,1,0-10,12.6,7.8,7.8,0,0,0,1.37.88A13.66,13.66,0,0,0,18.42,60v1.28a.93.93,0,0,0,.93.92h9.86c0,.38-.05.76-.05,1.13V65a1.17,1.17,0,0,0,1.17,1.17H62.6A1.17,1.17,0,0,0,63.77,65V63.34c0-.38,0-.76-.05-1.13h9.11a.92.92,0,0,0,.92-.92V60A13.65,13.65,0,0,0,63.73,46.86ZM60.11,33.49A6.2,6.2,0,1,1,55,43.16a10.19,10.19,0,0,0,1.31-8.34,6.16,6.16,0,0,1,3.82-1.33Zm-9,13.18A10.43,10.43,0,0,0,53.42,45a17.87,17.87,0,0,0,3.06,1.84A13.37,13.37,0,0,0,54,47.8,16.76,16.76,0,0,0,51.06,46.67Zm-4.6-17a7.86,7.86,0,1,1-7.86,7.86,7.86,7.86,0,0,1,7.86-7.86h0ZM38.51,48a13,13,0,0,0-2.82-1.14,14.65,14.65,0,0,0,3.45-2.2,10.28,10.28,0,0,0,2.72,2A17,17,0,0,0,38.51,48ZM25.87,39.69A6.19,6.19,0,0,1,36.5,35.37a10.16,10.16,0,0,0,.85,6.79l.21.37a6.19,6.19,0,0,1-11.69-2.84Zm-5.6,20.67h0V60a11.8,11.8,0,0,1,16.3-10.83,17.33,17.33,0,0,0-7.15,11.19Zm41.17,3.43H31.5v-.46a15,15,0,0,1,29.94,0Zm10.47-3.43h-8.4A17.37,17.37,0,0,0,56.1,49a11.79,11.79,0,0,1,15.11,7.07,11.53,11.53,0,0,1,.7,4Z"/><path class="cls-2" d="M46.5,1v.5A45,45,0,1,1,14.68,14.68,44.88,44.88,0,0,1,46.5,1.5V.5a46,46,0,1,0,46,46,46,46,0,0,0-46-46Z"/></svg>